HIERARCHY
ROOT Hips
{
	OFFSET 0.000000 0.000000 0.000000 
	CHANNELS 6 Xposition Yposition Zposition Zrotation Yrotation Xrotation
	JOINT LeftUpLeg
	{
		OFFSET 1.363060 -1.794630 0.839290 
		CHANNELS 3 Zrotation Yrotation Xrotation
		JOINT LeftLeg
		{
			OFFSET 2.448110 -6.726130 0.000000 
			CHANNELS 3 Zrotation Yrotation Xrotation
			JOINT LeftFoot
			{
				OFFSET 2.562200 -7.039590 0.000000 
				CHANNELS 3 Zrotation Yrotation Xrotation
				JOINT LeftToeBase
				{
					OFFSET 0.157640 -0.433110 2.322550 
					CHANNELS 3 Zrotation Yrotation Xrotation
					End Site
					{
						OFFSET 0.000000 0.000000 0.000000 
					}
				}
			}
		}
	}
	JOINT RightUpLeg
	{
		OFFSET -1.305520 -1.794630 0.839290 
		CHANNELS 3 Zrotation Yrotation Xrotation
		JOINT RightLeg
		{
			OFFSET -2.542530 -6.985550 0.000000 
			CHANNELS 3 Zrotation Yrotation Xrotation
			JOINT RightFoot
			{
				OFFSET -2.568260 -7.056230 0.000000 
				CHANNELS 3 Zrotation Yrotation Xrotation
				JOINT RightToeBase
				{
					OFFSET -0.164730 -0.452590 2.363150 
					CHANNELS 3 Zrotation Yrotation Xrotation
					End Site
					{
						OFFSET 0.000000 0.000000 0.000000 
					}
				}
			}
		}
	}
	JOINT Spine
	{
		OFFSET 0.028270 2.035590 -0.193380 
		CHANNELS 3 Zrotation Yrotation Xrotation
		JOINT Spine1
		{
			OFFSET 0.056720 2.048850 -0.042750 
			CHANNELS 3 Zrotation Yrotation Xrotation
			JOINT Neck1
			{
				OFFSET -0.054170 1.746240 0.172020 
				CHANNELS 3 Zrotation Yrotation Xrotation
				JOINT Head
				{
					OFFSET 0.104070 1.761360 -0.123970 
					CHANNELS 3 Zrotation Yrotation Xrotation
					End Site
					{
						OFFSET 0.000000 0.000000 0.000000 
					}
				}
			}
			JOINT LeftArm
			{
				OFFSET 3.362410 1.200890 -0.311210 
				CHANNELS 3 Zrotation Yrotation Xrotation
				JOINT LeftForeArm
				{
					OFFSET 4.983000 -0.000000 -0.000000 
					CHANNELS 3 Zrotation Yrotation Xrotation
					JOINT LeftHand
					{
						OFFSET 3.483560 -0.000000 -0.000000 
						CHANNELS 3 Zrotation Yrotation Xrotation
						JOINT LeftHandIndex1
						{
							OFFSET 0.715260 -0.000000 -0.000000 
							CHANNELS 3 Zrotation Yrotation Xrotation
							End Site
							{
								OFFSET 0.000000 0.000000 0.000000 
							}
						}
					}
				}
			}
			JOINT RightArm
			{
				OFFSET -3.136600 1.374050 -0.404650 
				CHANNELS 3 Zrotation Yrotation Xrotation
				JOINT RightForeArm
				{
					OFFSET -5.241900 -0.000000 -0.000000 
					CHANNELS 3 Zrotation Yrotation Xrotation
					JOINT RightHand
					{
						OFFSET -3.444170 -0.000000 -0.000000 
						CHANNELS 3 Zrotation Yrotation Xrotation
						JOINT RightHandIndex1
						{
							OFFSET -0.622530 -0.000000 -0.000000 
							CHANNELS 3 Zrotation Yrotation Xrotation
							End Site
							{
								OFFSET 0.000000 0.000000 0.000000 
							}
						}
					}
				}
			}
		}
	}
}
MOTION
Frames: 10
Frame Time: 0.041667
3.636279 17.585649 2.479134 -10.050898 -12.270726 3.785259 1.933551 -4.860731 -31.110202 0.421710 8.667480 23.157064 0.597004 0.824863 -0.689807 1.198100 -6.945100 -19.552900 30.570636 -0.540118 22.695137 0.576644 -0.133436 0.757340 -0.959171 4.637539 5.448700 -0.160900 2.584500 -7.124000 0.723347 7.668321 -3.150115 -1.864577 4.564532 1.487258 4.381832 -2.781470 13.462553 2.921900 -1.625000 9.708800 -82.638792 16.330166 -5.000319 5.518325 -14.340455 -0.005630 0.852318 -2.085400 25.036979 -7.125000 0.000000 0.000000 82.314750 28.152589 17.141908 -23.642246 34.502788 -7.712189 0.152549 -0.491323 -24.768627 7.125000 0.000000 0.000000 
3.649085 17.583108 2.697432 -9.777219 -12.414990 4.020022 1.561024 -4.737861 -30.742099 0.396643 8.628612 23.104149 0.887591 -0.181932 -0.177015 0.913200 -6.089000 -17.042800 30.033551 -0.514334 23.132950 0.575285 -0.129782 0.756435 -0.939469 4.345856 6.368952 -0.203900 2.907700 -8.021800 0.698252 7.725281 -3.199546 -1.698122 4.593893 1.440641 4.192188 -2.797297 13.691517 2.821900 -1.661500 9.770900 -82.653344 16.947682 -7.382835 5.219131 -13.792042 0.050904 0.830124 -2.076139 26.592384 -7.125000 0.000000 0.000000 82.222796 27.906292 17.163012 -23.828413 34.690211 -7.814184 0.154932 -0.489838 -24.922407 7.125000 0.000000 0.000000 
3.669207 17.583921 2.920101 -9.086797 -12.634196 3.899985 0.885417 -5.150218 -29.937953 0.364373 8.653102 23.194885 0.872394 -0.167421 -0.286705 0.665500 -5.217300 -14.529300 28.961648 -0.575856 23.839531 0.571570 -0.127694 0.760155 -0.928401 4.035410 7.457433 -0.246300 3.193300 -8.817500 0.576317 7.996029 -3.199804 -1.772821 4.728824 1.429411 4.218356 -2.997292 13.700646 2.863800 -1.767500 9.727800 -82.446138 17.479194 -8.935893 5.119298 -13.615508 0.076067 0.829094 -2.084196 27.550305 -7.125000 0.000000 0.000000 82.145374 27.679538 16.582258 -24.098126 34.971915 -7.975192 0.156963 -0.489671 -24.879516 7.125000 0.000000 0.000000 
3.693496 17.599369 3.147241 -8.406103 -12.819053 3.770257 -0.089926 -4.958398 -29.434576 0.358184 8.724084 23.441805 0.774328 0.094706 0.250758 0.654200 -5.173400 -14.403700 27.910095 -0.650593 24.484333 0.567802 -0.126395 0.761669 -0.917178 3.590861 8.775663 -0.287000 3.445400 -9.521200 0.469345 8.198260 -3.162085 -1.810865 4.833024 1.668511 4.478487 -3.095677 13.686092 3.026800 -1.796800 9.780400 -82.322790 17.544712 -10.714502 4.976712 -13.298107 0.163173 0.791887 -2.117684 28.909955 -7.125000 0.000000 0.000000 82.036788 27.713765 16.081453 -24.185563 35.081399 -8.036144 0.157281 -0.485980 -24.764979 7.125000 0.000000 0.000000 
3.714330 17.636870 3.373366 -8.165661 -13.036801 3.851867 -0.758111 -4.187161 -29.400276 0.381624 8.785105 23.676198 0.639580 0.512604 1.814955 0.709700 -5.384100 -15.007500 27.591927 -0.068168 23.133926 0.527053 -1.433111 4.300490 -0.936424 3.760639 8.611105 -0.291500 3.472000 -9.595800 0.468211 8.148559 -3.150283 -1.603812 4.808317 1.849196 4.578314 -2.949331 13.722520 3.079900 -1.718700 9.767400 -82.531779 17.964543 -12.362914 4.878018 -13.097743 0.240473 0.767396 -2.148781 29.741668 -7.125000 0.000000 0.000000 82.091563 27.591189 16.379341 -24.276266 35.193646 -8.087825 0.158738 -0.482748 -24.932047 7.125000 0.000000 0.000000 
3.738213 17.671932 3.604266 -8.256142 -13.176781 3.945124 -0.934787 -3.883798 -29.252187 0.397610 8.803642 23.745033 0.355011 1.544300 3.384288 0.693500 -5.323500 -14.833500 27.584585 0.410764 21.943434 0.416099 -2.633293 7.572008 -0.968734 3.951966 8.841966 -0.210800 2.956000 -8.156200 0.511859 8.016845 -3.154218 -1.434159 4.743826 1.948522 4.590201 -2.756958 13.761085 3.107000 -1.633700 9.718600 -82.917873 18.810505 -13.274794 4.910416 -13.198674 0.254169 0.759675 -2.167276 29.894260 -7.125000 0.000000 0.000000 82.242191 27.283124 16.677641 -24.417007 35.359792 -8.168364 0.155134 -0.484022 -25.031766 7.125000 0.000000 0.000000 
3.761181 17.688497 3.828663 -8.010454 -12.966301 3.924616 -1.426267 -3.789353 -29.023810 0.364712 8.758341 23.626699 0.193880 2.203738 5.037205 0.746300 -5.518200 -15.392700 27.225476 0.472605 20.777755 0.252469 -3.708663 10.539184 -0.996350 3.954041 9.597306 -0.122200 2.254000 -6.208200 0.499710 7.823511 -3.215143 -1.447409 4.641339 1.751474 4.525519 -2.637664 13.960207 3.071200 -1.588000 9.800700 -82.986020 19.601101 -13.902003 4.869262 -13.135518 0.273842 0.735021 -2.176824 29.918968 -7.125000 0.000000 0.000000 82.420007 26.814650 16.882710 -24.536376 35.474571 -8.230545 0.152538 -0.487686 -25.117432 7.125000 0.000000 0.000000 
3.770836 17.706384 4.041270 -6.780311 -12.595816 3.459462 -2.883016 -3.512593 -28.642807 0.286548 8.708623 23.531411 0.298656 1.915549 6.622326 0.455300 -4.328500 -12.002700 25.937855 0.364044 19.882808 0.041124 -4.719187 13.352728 -0.972570 3.438046 10.452042 -0.159400 2.572300 -7.090200 0.385724 7.575377 -3.283982 -1.411232 4.499358 1.280710 4.251583 -2.599954 14.333242 2.829400 -1.575300 10.000300 -82.697152 20.279679 -14.466813 4.757204 -12.936679 0.303240 0.729546 -2.177428 29.582591 -7.125000 0.000000 0.000000 82.838823 26.246182 17.018521 -24.653577 35.549980 -8.280452 0.151937 -0.492211 -25.138916 7.125000 0.000000 0.000000 
3.778560 17.741547 4.256622 -5.035510 -12.301248 2.874417 -4.875220 -2.997280 -28.262004 0.203717 8.679297 23.483877 0.388364 1.673882 8.056280 0.099000 -2.029200 -5.586300 23.975176 0.212228 18.884041 -0.237943 -5.765714 16.312079 -0.972681 2.972287 11.581660 -0.151200 2.505500 -6.904900 0.234366 7.381059 -3.264483 -1.127691 4.386456 1.209216 4.204829 -2.636676 14.542061 2.734200 -1.582500 10.131800 -82.509926 20.524785 -15.296495 4.661085 -12.783553 0.320975 0.727510 -2.177432 29.886068 -7.125000 0.000000 0.000000 83.208757 25.817192 16.907239 -24.769483 35.659104 -8.339280 0.147667 -0.490375 -25.027125 7.125000 0.000000 0.000000 
3.792585 17.791549 4.476547 -3.997764 -11.854930 2.575235 -6.217416 -2.561660 -27.811354 0.149229 8.637317 23.364332 0.353552 2.134388 10.216283 0.026100 -1.043700 -2.869100 22.780493 0.100707 17.596633 -0.582449 -6.833449 19.358977 -0.968043 2.197906 13.129092 -0.062100 1.608400 -4.424700 0.173098 7.169473 -3.212481 -0.759481 4.263811 1.418272 4.613687 -2.668107 14.373205 3.011600 -1.582300 10.076900 -82.588084 20.397283 -16.240750 4.518660 -12.509517 0.340413 0.705872 -2.170130 30.819939 -7.125000 0.000000 0.000000 83.226643 25.361468 16.745411 -25.012049 35.928679 -8.483517 0.143567 -0.485809 -25.004952 7.125000 0.000000 0.000000 
